<?xml version="1.0" encoding="UTF-8" standalone="no"?><!DOCTYPE svg PUBLIC "-//W3C//DTD SVG 1.1//EN" "http://www.w3.org/Graphics/SVG/1.1/DTD/svg11.dtd"><svg width="100%" height="100%" viewBox="0 0 896 450" version="1.1" xmlns="http://www.w3.org/2000/svg" xmlns:xlink="http://www.w3.org/1999/xlink" xml:space="preserve" xmlns:serif="http://www.serif.com/" style="fill-rule:evenodd;clip-rule:evenodd;stroke-linejoin:round;stroke-miterlimit:2;"><g><g><path d="M281.15,293.206c-0,-43.773 -0.029,-87.551 0.052,-131.329c0.005,-3.258 -0.965,-5.68 -3.222,-8.012c-3.538,-3.654 -6.811,-7.571 -10.027,-11.516c-1.426,-1.745 -3.016,-2.295 -5.19,-2.29c-20.23,0.057 -40.455,0.034 -60.683,0.034c-28.582,-0 -57.17,-0.024 -85.754,0.039c-2.441,0.005 -4.215,-0.612 -5.864,-2.532c-4.347,-5.07 -8.614,-10.193 -12.772,-15.414c-2.285,-2.866 -4.686,-5.638 -7.036,-8.447c-9.796,-11.711 -19.593,-23.411 -29.373,-35.126c-3.797,-4.542 -7.771,-8.935 -11.189,-13.793c-1.256,-1.782 -0.75,-2.342 1.125,-2.464c0.836,-0.052 1.673,-0.036 2.503,-0.036c74.889,-0 149.784,0.026 224.675,-0.078c3.356,-0 5.387,1.354 7.353,3.737c6.956,8.427 14.037,16.747 21.055,25.12c5.898,7.031 11.763,14.088 17.666,21.112c6.761,8.046 13.541,16.081 20.342,24.092c1.141,1.339 1.675,2.75 1.675,4.542c-0.026,74.274 -0.039,148.541 0.024,222.818c-0,2.806 -1.564,4.479 -3.261,6.183c-5.76,5.812 -11.588,11.555 -17.351,17.372c-13.443,13.583 -26.863,27.192 -40.303,40.788c-0.529,0.527 -1.04,1.154 -1.683,1.481c-1.268,0.633 -2.365,0.34 -2.643,-1.196c-0.182,-1.055 -0.119,-2.163 -0.119,-3.249c-0.006,-43.945 -0.006,-87.891 -0,-131.836" style="fill-rule:nonzero;"/><path d="M412.607,62.321c33.603,-0 67.198,-0.005 100.802,0.018c1.359,0.005 3.231,-0.643 3.945,0.776c0.757,1.509 -0.838,2.725 -1.741,3.83c-5.296,6.448 -10.683,12.818 -15.99,19.256c-7.747,9.396 -15.447,18.832 -23.163,28.25c-6.399,7.801 -12.81,15.593 -19.167,23.436c-1.149,1.416 -2.911,2.238 -4.734,2.236c-26.401,-0.047 -47.78,-0.047 -74.181,-0c-1.945,0.005 -3.221,-0.675 -4.451,-2.179c-4.974,-6.059 -51.86,-62.201 -59.314,-71.084c-0.218,-0.254 -0.464,-0.49 -0.643,-0.771c-0.584,-0.954 -1.818,-1.849 -1.159,-3.055c0.594,-1.074 1.958,-0.7 3.016,-0.7c33.935,-0.018 62.844,-0.013 96.78,-0.013" style="fill-rule:nonzero;"/><path d="M258.516,302.257c0,35.261 0.005,70.517 -0.023,105.775c-0,1.675 0.726,3.963 -1.175,4.777c-1.839,0.789 -2.866,-1.395 -3.929,-2.503c-8.419,-8.829 -17.23,-17.276 -25.631,-26.107c-6.611,-6.949 -13.451,-13.651 -20.215,-20.441c-1.867,-1.873 -2.804,-3.831 -2.798,-6.603c0.075,-58.153 0.059,-131.825 0.059,-189.972c0,-4.033 0.003,-4.039 4.031,-4.039c11.871,-0.005 23.734,0.034 35.608,-0.033c2.124,-0.019 3.621,0.643 4.897,2.36c2.389,3.211 4.904,6.328 7.454,9.412c1.442,1.735 1.746,3.665 1.746,5.831c-0.034,35.341 -0.024,86.202 -0.024,121.543" style="fill-rule:nonzero;"/><path d="M796.011,421.049l-34.172,-79.568c-0.954,-2.223 -3.14,-3.663 -5.558,-3.663l-31.959,0c-1.794,0 -3.496,-0.78 -4.668,-2.134l-48.035,-55.528c-0.954,-1.102 -1.475,-2.508 -1.475,-3.963c0.025,-25.786 0.038,-51.574 0.038,-77.363l0,-131.82c0,-1.105 0.047,-2.21 -0.145,-3.265c-0.142,-0.864 -0.576,-1.344 -1.151,-1.44l-0.913,0c-0,0.05 -0.047,0 -0.047,0l-6.251,0c-0.189,-0.018 -0.352,-0.109 -0.547,-0.109l-118.216,0c-0.412,0 -0.744,0.164 -1.022,0.387c-0.171,0.111 -0.34,0.231 -0.454,0.443c-0.026,0.042 -0.008,0.078 -0.026,0.12c-0.018,0.036 -0.01,0.077 -0.026,0.116c-0.083,0.229 -0.147,0.454 -0.114,0.667c0.011,0.345 0.104,0.692 0.358,0.996l0.869,1.048c0.029,0.041 0.065,0.083 0.091,0.124c0.192,0.288 0.43,0.529 0.622,0.768c0.501,0.591 1.183,1.406 2.008,2.389l58.16,70.109c0.918,1.105 1.421,2.497 1.421,3.934c0.044,50.88 0.047,101.762 0,152.595l0.008,0l-0,30.883c-0,1.452 0.521,2.855 1.473,3.955l6.121,7.088l45.464,52.553l32.014,37.022c1.146,1.33 2.819,2.093 4.575,2.093l95.999,-0c4.344,-0 7.272,-4.443 5.558,-8.437" style="fill-rule:nonzero;"/><path d="M685.987,65.583c0,0.304 -0.049,-0.801 0.143,-1.857c0.145,-0.864 0.578,-1.343 1.154,-1.439l35.204,-0c0.575,0.096 1.006,0.575 1.151,1.439c0.192,1.056 0.145,2.161 0.145,3.263l0,131.82c0,30.944 0,79.985 -0.041,112.507c-0.003,1.515 -1.883,2.189 -2.882,1.048l-34.389,-39.351c-0.28,-0.324 -0.436,-0.739 -0.436,-1.17l-0.049,-206.26Z" style="fill-rule:nonzero;"/><path d="M669.17,428.384c-0.721,1.297 -2.306,0.863 -3.6,0.863l-143.615,0c-4.345,0 -7.273,-4.442 -5.559,-8.437l34.452,-80.252c0.957,-2.226 3.185,-3.668 5.607,-3.663c26.318,0.042 4.635,0.039 34.851,-0.007c2.306,-0.047 3.841,0.77 5.283,2.544c5.904,7.2 61.589,73.877 70.421,84.439c0.288,0.288 0.575,0.576 0.767,0.913c0.721,1.151 2.161,2.207 1.393,3.6" style="fill-rule:nonzero;"/></g></g></svg>