<?xml version="1.0" encoding="utf-8"?>
<!-- Generator: Adobe Illustrator 27.8.1, SVG Export Plug-In . SVG Version: 6.00 Build 0)  -->
<svg version="1.1" id="图层_1" xmlns="http://www.w3.org/2000/svg" xmlns:xlink="http://www.w3.org/1999/xlink" x="0px" y="0px"
	 viewBox="0 0 215 108" style="enable-background:new 0 0 215 108;" xml:space="preserve">
<g>
	<path d="M157.78,10.13c9.15,0,18.3,0.01,27.44-0.01c0.67,0,1.13,0.2,1.57,0.72c2.46,2.96,4.97,5.89,7.45,8.83
		c1.52,1.81,3.02,3.64,4.54,5.45c0.93,1.11,1.86,2.21,2.8,3.31c0.27,0.31,0.39,0.66,0.37,1.07c0,0.04,0,0.08,0,0.12
		c-0.06,11,0.19,22,0.11,33c-0.01,1.03-0.02,1.05-1.07,1.05c-17.38,0-32.55,0-49.92,0.01c-0.58,0-0.97-0.17-1.35-0.63
		c-1.18-1.48-14.16-16.97-14.56-17.46c-0.17-0.2-0.29-0.41-0.18-0.67c0.11-0.25,0.36-0.23,0.58-0.24c0.24-0.01,0.49,0,0.74,0
		c16.89,0,31.57,0,48.45,0c0.22,0,0.45-0.01,0.67,0c0.42,0.02,0.59-0.16,0.58-0.58c-0.02-0.67,0-1.35,0-2.02
		c0-2.61-0.01-5.23,0.01-7.84c0-0.41-0.09-0.75-0.37-1.06c-1.09-1.24-2.16-2.49-3.23-3.75c-0.17-0.2-0.37-0.3-0.64-0.3
		c-0.22,0-0.45,0-0.67,0c-11.8,0-23.61-0.01-35.41,0.02c-0.75,0-1.24-0.23-1.71-0.8c-1.85-2.25-3.76-4.46-5.62-6.7
		c-2.14-2.59-4.28-5.18-6.45-7.76c-0.79-0.93-1.61-1.84-2.33-2.83c-0.16-0.22-0.44-0.45-0.28-0.75c0.14-0.26,0.48-0.17,0.73-0.17
		C139.28,10.13,148.53,10.13,157.78,10.13z"/>
	<path d="M65.7,66.54c0-10.7-0.01-21.39,0.01-32.09c0-0.8-0.24-1.39-0.79-1.96c-0.86-0.89-1.66-1.85-2.45-2.81
		c-0.35-0.43-0.74-0.56-1.27-0.56c-4.94,0.01-9.88,0.01-14.83,0.01c-6.98,0-13.97-0.01-20.95,0.01c-0.6,0-1.03-0.15-1.43-0.62
		c-1.06-1.24-2.11-2.49-3.12-3.77c-0.56-0.7-1.14-1.38-1.72-2.06c-2.39-2.86-4.79-5.72-7.18-8.58c-0.93-1.11-1.9-2.18-2.73-3.37
		c-0.31-0.44-0.18-0.57,0.28-0.6c0.2-0.01,0.41-0.01,0.61-0.01c18.3,0,36.59,0.01,54.89-0.02c0.82,0,1.32,0.33,1.8,0.91
		c1.7,2.06,3.43,4.09,5.14,6.14c1.44,1.72,2.87,3.44,4.32,5.16c1.65,1.97,3.31,3.93,4.97,5.89c0.28,0.33,0.41,0.67,0.41,1.11
		c-0.01,18.15-0.01,36.29,0,54.44c0,0.69-0.38,1.09-0.8,1.51c-1.41,1.42-2.83,2.82-4.24,4.24c-3.29,3.32-6.56,6.64-9.85,9.96
		c-0.13,0.13-0.25,0.28-0.41,0.36c-0.31,0.15-0.58,0.08-0.64-0.29c-0.05-0.26-0.03-0.53-0.03-0.79C65.7,88.01,65.7,77.28,65.7,66.54
		z"/>
	<path d="M128.67,64.13c0-5.41,0-10.82,0.01-16.22c0-0.37-0.14-0.9,0.29-1.03c0.35-0.11,0.5,0.4,0.71,0.66
		c1.8,2.23,3.59,4.48,5.39,6.72c1.63,2.03,3.28,4.05,4.91,6.09c1.42,1.78,2.82,3.59,4.26,5.36c0.35,0.43,0.49,0.85,0.49,1.39
		c-0.01,2.9,0,5.8-0.01,8.69c0,0.45,0.11,0.82,0.41,1.17c1.01,1.15,2,2.31,2.98,3.48c0.29,0.34,0.64,0.38,1.04,0.38
		c4.63,0,9.27-0.08,13.9,0.02c6.51,0.13,13.02,0.01,19.53,0.13c1.12,0.02,2.26,0.2,3.4,0.22c0.29,0,0.48,0.19,0.65,0.4
		c3.45,4.15,6.91,8.3,10.36,12.45c1.4,1.67,2.81,3.34,4.21,5.01c0.13,0.16,0.27,0.31,0.37,0.48c0.18,0.33,0.08,0.55-0.3,0.61
		c-0.12,0.02-0.24,0.02-0.37,0.02c-6.96,0-13.93,0.2-20.89-0.07c-8.02-0.31-16.03-0.05-24.04-0.18c-3.65-0.06-7.31-0.08-10.96-0.1
		c-0.48,0-0.8-0.19-1.1-0.54c-2.23-2.65-4.47-5.3-6.7-7.95c-2.3-2.73-4.59-5.46-6.88-8.19c-0.37-0.44-0.72-0.89-1.1-1.31
		c-0.44-0.48-0.58-0.97-0.58-1.6C128.68,74.86,128.67,69.5,128.67,64.13z"/>
	<path d="M97.81,10.13c8.21,0,16.42,0,24.63,0.01c0.33,0,0.79-0.16,0.96,0.19c0.18,0.37-0.2,0.67-0.43,0.94
		c-1.29,1.58-2.61,3.13-3.91,4.7c-1.89,2.3-3.77,4.6-5.66,6.9c-1.58,1.92-3.16,3.84-4.72,5.77c-0.3,0.37-0.64,0.5-1.11,0.5
		c-6.45-0.01-11.68-0.01-18.13,0c-0.48,0-0.79-0.16-1.09-0.53c-1.22-1.48-12.67-15.2-14.49-17.37c-0.05-0.06-0.11-0.12-0.16-0.19
		c-0.14-0.23-0.44-0.45-0.28-0.75c0.14-0.26,0.48-0.17,0.74-0.17C82.46,10.13,89.52,10.13,97.81,10.13z"/>
	<path d="M60.17,68.75c0,8.61,0,17.23-0.01,25.84c0,0.41,0.18,0.97-0.29,1.17c-0.45,0.19-0.7-0.34-0.96-0.61
		c-2.06-2.16-4.21-4.22-6.26-6.38c-1.61-1.7-3.29-3.34-4.94-4.99c-0.46-0.46-0.68-0.94-0.68-1.61c0.02-14.21,0.01-32.21,0.01-46.41
		c0-0.98,0-0.99,0.98-0.99c2.9,0,5.8,0.01,8.7-0.01c0.52,0,0.88,0.16,1.2,0.58c0.58,0.78,1.2,1.55,1.82,2.3
		c0.35,0.42,0.43,0.9,0.43,1.42C60.16,47.69,60.17,60.12,60.17,68.75z"/>
</g>
</svg>
